{
    "asset" : {
        "generator" : "Khronos glTF Blender I/O v1.8.19",
        "version" : "2.0"
    },
    "scene" : 0,
    "scenes" : [
        {
            "name" : "Scene",
            "nodes" : [
                0,
                1
            ]
        }
    ],
    "nodes" : [
        {
            "mesh" : 0,
            "name" : "Plane",
            "rotation" : [
                0.7010573744773865,
                0.09229595214128494,
                0.09229595959186554,
                0.7010574340820312
            ],
            "scale" : [
                74.75,
                115,
                81.0884017944336
            ],
            "translation" : [
                0,
                0.12900471687316895,
                2.0559768676757812
            ]
        },
        {
            "mesh" : 1,
            "name" : "Cube",
            "rotation" : [
                0.7010573744773865,
                0.09229595214128494,
                0.09229595959186554,
                0.7010574340820312
            ],
            "scale" : [
                78.7750015258789,
                3.999999523162842,
                31.625
            ],
            "translation" : [
                0,
                0.12900471687316895,
                -2.056501865386963
            ]
        }
    ],
    "materials" : [
        {
            "doubleSided" : true,
            "name" : "Koko Kringle",
            "pbrMetallicRoughness" : {
                "baseColorTexture" : {
                    "index" : 0
                },
                "metallicFactor" : 0,
                "roughnessFactor" : 0.75
            }
        },
        {
            "doubleSided" : true,
            "name" : "Paper",
            "pbrMetallicRoughness" : {
                "baseColorFactor" : [
                    0.800000011920929,
                    0.800000011920929,
                    0.800000011920929,
                    1
                ],
                "metallicFactor" : 0,
                "roughnessFactor" : 0.5
            }
        },
        {
            "doubleSided" : true,
            "name" : "Foil",
            "normalTexture" : {
                "index" : 1
            },
            "pbrMetallicRoughness" : {
                "baseColorTexture" : {
                    "index" : 2
                },
                "metallicFactor" : 0.5,
                "roughnessFactor" : 0.4000000059604645
            }
        }
    ],
    "meshes" : [
        {
            "name" : "Plane",
            "primitives" : [
                {
                    "attributes" : {
                        "POSITION" : 0,
                        "NORMAL" : 1,
                        "TEXCOORD_0" : 2
                    },
                    "indices" : 3,
                    "material" : 0
                },
                {
                    "attributes" : {
                        "POSITION" : 4,
                        "NORMAL" : 5,
                        "TEXCOORD_0" : 6
                    },
                    "indices" : 7,
                    "material" : 1
                }
            ]
        },
        {
            "name" : "Cube.001",
            "primitives" : [
                {
                    "attributes" : {
                        "POSITION" : 8,
                        "NORMAL" : 9,
                        "TEXCOORD_0" : 10
                    },
                    "indices" : 11,
                    "material" : 2
                }
            ]
        }
    ],
    "textures" : [
        {
            "sampler" : 0,
            "source" : 0
        },
        {
            "sampler" : 0,
            "source" : 1
        },
        {
            "sampler" : 0,
            "source" : 2
        }
    ],
    "images" : [
        {
            "bufferView" : 4,
            "mimeType" : "image/jpeg",
            "name" : "KokoKringle_Albedo"
        },
        {
            "bufferView" : 13,
            "mimeType" : "image/jpeg",
            "name" : "Metal_Normal"
        },
        {
            "bufferView" : 14,
            "mimeType" : "image/jpeg",
            "name" : "Metal_Albedo"
        }
    ],
    "accessors" : [
        {
            "bufferView" : 0,
            "componentType" : 5126,
            "count" : 902,
            "max" : [
                1.000000238418579,
                0.0027499983552843332,
                0.3949289917945862
            ],
            "min" : [
                -1.000000238418579,
                -0.07607845216989517,
                -0.39441001415252686
            ],
            "type" : "VEC3"
        },
        {
            "bufferView" : 1,
            "componentType" : 5126,
            "count" : 902,
            "type" : "VEC3"
        },
        {
            "bufferView" : 2,
            "componentType" : 5126,
            "count" : 902,
            "type" : "VEC2"
        },
        {
            "bufferView" : 3,
            "componentType" : 5123,
            "count" : 3930,
            "type" : "SCALAR"
        },
        {
            "bufferView" : 5,
            "componentType" : 5126,
            "count" : 737,
            "max" : [
                1.000000238418579,
                0.0002500023692846298,
                0.3924294114112854
            ],
            "min" : [
                -1.000000238418579,
                -0.07357845455408096,
                -0.3919104337692261
            ],
            "type" : "VEC3"
        },
        {
            "bufferView" : 6,
            "componentType" : 5126,
            "count" : 737,
            "type" : "VEC3"
        },
        {
            "bufferView" : 7,
            "componentType" : 5126,
            "count" : 737,
            "type" : "VEC2"
        },
        {
            "bufferView" : 8,
            "componentType" : 5123,
            "count" : 3318,
            "type" : "SCALAR"
        },
        {
            "bufferView" : 9,
            "componentType" : 5126,
            "count" : 198,
            "max" : [
                0.9991965889930725,
                1.0000001192092896,
                0.9997963905334473
            ],
            "min" : [
                -0.9991786479949951,
                -1.0000001192092896,
                -0.9998422861099243
            ],
            "type" : "VEC3"
        },
        {
            "bufferView" : 10,
            "componentType" : 5126,
            "count" : 198,
            "type" : "VEC3"
        },
        {
            "bufferView" : 11,
            "componentType" : 5126,
            "count" : 198,
            "type" : "VEC2"
        },
        {
            "bufferView" : 12,
            "componentType" : 5123,
            "count" : 1008,
            "type" : "SCALAR"
        }
    ],
    "bufferViews" : [
        {
            "buffer" : 0,
            "byteLength" : 10824,
            "byteOffset" : 0
        },
        {
            "buffer" : 0,
            "byteLength" : 10824,
            "byteOffset" : 10824
        },
        {
            "buffer" : 0,
            "byteLength" : 7216,
            "byteOffset" : 21648
        },
        {
            "buffer" : 0,
            "byteLength" : 7860,
            "byteOffset" : 28864
        },
        {
            "buffer" : 0,
            "byteLength" : 280405,
            "byteOffset" : 36724
        },
        {
            "buffer" : 0,
            "byteLength" : 8844,
            "byteOffset" : 317132
        },
        {
            "buffer" : 0,
            "byteLength" : 8844,
            "byteOffset" : 325976
        },
        {
            "buffer" : 0,
            "byteLength" : 5896,
            "byteOffset" : 334820
        },
        {
            "buffer" : 0,
            "byteLength" : 6636,
            "byteOffset" : 340716
        },
        {
            "buffer" : 0,
            "byteLength" : 2376,
            "byteOffset" : 347352
        },
        {
            "buffer" : 0,
            "byteLength" : 2376,
            "byteOffset" : 349728
        },
        {
            "buffer" : 0,
            "byteLength" : 1584,
            "byteOffset" : 352104
        },
        {
            "buffer" : 0,
            "byteLength" : 2016,
            "byteOffset" : 353688
        },
        {
            "buffer" : 0,
            "byteLength" : 296573,
            "byteOffset" : 355704
        },
        {
            "buffer" : 0,
            "byteLength" : 129045,
            "byteOffset" : 652280
        }
    ],
    "samplers" : [
        {
            "magFilter" : 9729,
            "minFilter" : 9987
        }
    ],
    "buffers" : [
        {
            "byteLength" : 781328,
            "uri" : "data:application/octet-stream;base64,"
        }
    ]
}
