{
    "asset" : {
        "generator" : "Khronos glTF Blender I/O v1.8.19",
        "version" : "2.0"
    },
    "scene" : 0,
    "scenes" : [
        {
            "name" : "Scene",
            "nodes" : [
                0,
                1
            ]
        }
    ],
    "nodes" : [
        {
            "mesh" : 0,
            "name" : "spraycan_spraycan_1.001_spraycan_spraycan_1.001_spraycan01.001",
            "rotation" : [
                0.541675329208374,
                -0.45451948046684265,
                0.5416752696037292,
                0.45451951026916504
            ],
            "scale" : [
                400,
                400,
                400
            ],
            "translation" : [
                0,
                -95,
                0
            ]
        },
        {
            "mesh" : 1,
            "name" : "spraycan_spraycan_1.001_spraycan_spraycan_1.001_spraycan02.001",
            "rotation" : [
                0.541675329208374,
                -0.45451948046684265,
                0.5416752696037292,
                0.45451951026916504
            ],
            "scale" : [
                400,
                400,
                400
            ],
            "translation" : [
                0,
                -95,
                0
            ]
        }
    ],
    "materials" : [
        {
            "doubleSided" : true,
            "name" : "spraycan01",
            "normalTexture" : {
                "index" : 0
            },
            "pbrMetallicRoughness" : {
                "baseColorTexture" : {
                    "index" : 1
                },
                "metallicRoughnessTexture" : {
                    "index" : 2
                }
            }
        },
        {
            "doubleSided" : true,
            "name" : "spraycan02",
            "normalTexture" : {
                "index" : 3
            },
            "pbrMetallicRoughness" : {
                "baseColorTexture" : {
                    "index" : 4
                },
                "metallicRoughnessTexture" : {
                    "index" : 5
                }
            }
        }
    ],
    "meshes" : [
        {
            "name" : "spraycan_spraycan_1.001_spraycan_spraycan_1.001_spraycan01.001",
            "primitives" : [
                {
                    "attributes" : {
                        "POSITION" : 0,
                        "NORMAL" : 1,
                        "TEXCOORD_0" : 2
                    },
                    "indices" : 3,
                    "material" : 0
                }
            ]
        },
        {
            "name" : "spraycan_spraycan_1.001_spraycan_spraycan_1.001_spraycan02.001",
            "primitives" : [
                {
                    "attributes" : {
                        "POSITION" : 4,
                        "NORMAL" : 5,
                        "TEXCOORD_0" : 6
                    },
                    "indices" : 7,
                    "material" : 1
                }
            ]
        }
    ],
    "textures" : [
        {
            "sampler" : 0,
            "source" : 0
        },
        {
            "sampler" : 0,
            "source" : 1
        },
        {
            "sampler" : 0,
            "source" : 2
        },
        {
            "sampler" : 0,
            "source" : 3
        },
        {
            "sampler" : 0,
            "source" : 4
        },
        {
            "sampler" : 0,
            "source" : 5
        }
    ],
    "images" : [
        {
            "bufferView" : 4,
            "mimeType" : "image/png",
            "name" : "spraycan_01_normalmap"
        },
        {
            "bufferView" : 5,
            "mimeType" : "image/png",
            "name" : "spraycan_01_albedo"
        },
        {
            "bufferView" : 6,
            "mimeType" : "image/png",
            "name" : "spraycan_01_metalroughness"
        },
        {
            "bufferView" : 11,
            "mimeType" : "image/png",
            "name" : "spraycan_02_normalmap"
        },
        {
            "bufferView" : 12,
            "mimeType" : "image/png",
            "name" : "spraycan_02_albedo"
        },
        {
            "bufferView" : 13,
            "mimeType" : "image/png",
            "name" : "spraycan_02_metalroughness"
        }
    ],
    "accessors" : [
        {
            "bufferView" : 0,
            "componentType" : 5126,
            "count" : 1024,
            "max" : [
                0.05181565135717392,
                0.005424658302217722,
                -0.0890028104186058
            ],
            "min" : [
                -0.05181441456079483,
                -0.09821303933858871,
                -0.4026608169078827
            ],
            "type" : "VEC3"
        },
        {
            "bufferView" : 1,
            "componentType" : 5126,
            "count" : 1024,
            "type" : "VEC3"
        },
        {
            "bufferView" : 2,
            "componentType" : 5126,
            "count" : 1024,
            "type" : "VEC2"
        },
        {
            "bufferView" : 3,
            "componentType" : 5123,
            "count" : 3510,
            "type" : "SCALAR"
        },
        {
            "bufferView" : 7,
            "componentType" : 5126,
            "count" : 100,
            "max" : [
                0.0514068603515625,
                0.0050126491114497185,
                -0.09649750590324402
            ],
            "min" : [
                -0.0514068603515625,
                -0.097801074385643,
                -0.3408885896205902
            ],
            "type" : "VEC3"
        },
        {
            "bufferView" : 8,
            "componentType" : 5126,
            "count" : 100,
            "type" : "VEC3"
        },
        {
            "bufferView" : 9,
            "componentType" : 5126,
            "count" : 100,
            "type" : "VEC2"
        },
        {
            "bufferView" : 10,
            "componentType" : 5123,
            "count" : 432,
            "type" : "SCALAR"
        }
    ],
    "bufferViews" : [
        {
            "buffer" : 0,
            "byteLength" : 12288,
            "byteOffset" : 0
        },
        {
            "buffer" : 0,
            "byteLength" : 12288,
            "byteOffset" : 12288
        },
        {
            "buffer" : 0,
            "byteLength" : 8192,
            "byteOffset" : 24576
        },
        {
            "buffer" : 0,
            "byteLength" : 7020,
            "byteOffset" : 32768
        },
        {
            "buffer" : 0,
            "byteLength" : 171743,
            "byteOffset" : 39788
        },
        {
            "buffer" : 0,
            "byteLength" : 219931,
            "byteOffset" : 211532
        },
        {
            "buffer" : 0,
            "byteLength" : 120806,
            "byteOffset" : 431464
        },
        {
            "buffer" : 0,
            "byteLength" : 1200,
            "byteOffset" : 552272
        },
        {
            "buffer" : 0,
            "byteLength" : 1200,
            "byteOffset" : 553472
        },
        {
            "buffer" : 0,
            "byteLength" : 800,
            "byteOffset" : 554672
        },
        {
            "buffer" : 0,
            "byteLength" : 864,
            "byteOffset" : 555472
        },
        {
            "buffer" : 0,
            "byteLength" : 221509,
            "byteOffset" : 556336
        },
        {
            "buffer" : 0,
            "byteLength" : 101257,
            "byteOffset" : 777848
        },
        {
            "buffer" : 0,
            "byteLength" : 129679,
            "byteOffset" : 879108
        }
    ],
    "samplers" : [
        {
            "magFilter" : 9729,
            "minFilter" : 9987
        }
    ],
    "buffers" : [
        {
            "byteLength" : 1008788,
            "uri" : "data:application/octet-stream;base64,"
        }
    ]
}
